HIERARCHY
ROOT Pelvis
{
	OFFSET 0.000000 0.000000 0.000000
	CHANNELS 6 Xposition Yposition Zposition Xrotation Yrotation Zrotation
	JOINT LeftUpLeg_virtual
	{
		OFFSET 0.000000 0.000000 0.000000
		CHANNELS 3 Xrotation Yrotation Zrotation
		JOINT LeftUpLeg
		{
			OFFSET 18.735201 -5.666702 -4.541200
			CHANNELS 3 Xrotation Yrotation Zrotation
			JOINT LeftLeg
			{
				OFFSET -0.021200 -31.938179 0.493100
				CHANNELS 3 Xrotation Yrotation Zrotation
				JOINT LeftFoot
				{
					OFFSET 0.021200 -31.938179 -4.336299
					CHANNELS 3 Xrotation Yrotation Zrotation
					JOINT LeftToeBase
					{
						OFFSET 0.943001 -26.722000 15.023500
						CHANNELS 3 Xrotation Yrotation Zrotation
						End Site
						{
							OFFSET 0 0 0
						}
					}
				}
			}
		}
	}
	JOINT RightUpLeg_virtual
	{
		OFFSET 0.000000 0.000000 0.000000
		CHANNELS 3 Xrotation Yrotation Zrotation
		JOINT RightUpLeg
		{
			OFFSET -18.735201 -5.666702 -4.541200
			CHANNELS 3 Xrotation Yrotation Zrotation
			JOINT RightLeg
			{
				OFFSET 0.018946 -31.938133 0.493100
				CHANNELS 3 Xrotation Yrotation Zrotation
				JOINT RightFoot
				{
					OFFSET -0.018946 -31.938126 -4.336299
					CHANNELS 3 Xrotation Yrotation Zrotation
					JOINT RightToeBase
					{
						OFFSET -0.943001 -26.722004 15.023500
						CHANNELS 3 Xrotation Yrotation Zrotation
						End Site
						{
							OFFSET 0 0 0
						}
					}
				}
			}
		}
	}
	JOINT Hips_virtual
	{
		OFFSET 0.000000 0.000000 0.000000
		CHANNELS 3 Xrotation Yrotation Zrotation
		JOINT Hips
		{
			OFFSET -0.000000 -0.000000 -0.000000
			CHANNELS 3 Xrotation Yrotation Zrotation
			JOINT Spine
			{
				OFFSET 0.000000 10.199997 -0.299500
				CHANNELS 3 Xrotation Yrotation Zrotation
				JOINT Spine1
				{
					OFFSET 0.000000 11.900002 -1.516600
					CHANNELS 3 Xrotation Yrotation Zrotation
					JOINT Spine2
					{
						OFFSET 0.000000 13.600006 -2.842500
						CHANNELS 3 Xrotation Yrotation Zrotation
						JOINT Neck_virtual
						{
							OFFSET 0.000000 0.000000 0.000000
							CHANNELS 3 Xrotation Yrotation Zrotation
							JOINT Neck
							{
								OFFSET 0.000000 9.624100 -2.890100
								CHANNELS 3 Xrotation Yrotation Zrotation
								JOINT Head
								{
									OFFSET 0.000000 14.068802 -1.351900
									CHANNELS 3 Xrotation Yrotation Zrotation
									End Site
									{
										OFFSET 0 0 0
									}
								}
							}
						}
						JOINT LeftShoulder_virtual
						{
							OFFSET 0.000000 0.000000 0.000000
							CHANNELS 3 Xrotation Yrotation Zrotation
							JOINT LeftShoulder
							{
								OFFSET 15.263000 10.923401 -0.547700
								CHANNELS 3 Xrotation Yrotation Zrotation
								JOINT LeftArm
								{
									OFFSET 25.438599 -2.830597 -13.032500
									CHANNELS 3 Xrotation Yrotation Zrotation
									JOINT LeftForeArm
									{
										OFFSET 29.960503 0.000000 0.000000
										CHANNELS 3 Xrotation Yrotation Zrotation
										JOINT LeftHand
										{
											OFFSET 27.849251 0.000000 0.000000
											CHANNELS 3 Xrotation Yrotation Zrotation
											End Site
											{
												OFFSET 0 0 0
											}
										}
									}
								}
							}
						}
						JOINT RightShoulder_virtual
						{
							OFFSET 0.000000 0.000000 0.000000
							CHANNELS 3 Xrotation Yrotation Zrotation
							JOINT RightShoulder
							{
								OFFSET -15.263000 10.923401 -0.547700
								CHANNELS 3 Xrotation Yrotation Zrotation
								JOINT RightArm
								{
									OFFSET -25.438599 -2.830597 -13.032500
									CHANNELS 3 Xrotation Yrotation Zrotation
									JOINT RightForeArm
									{
										OFFSET -29.960503 0.000000 0.000000
										CHANNELS 3 Xrotation Yrotation Zrotation
										JOINT RightHand
										{
											OFFSET -27.849251 0.000000 0.000000
											CHANNELS 3 Xrotation Yrotation Zrotation
											End Site
											{
												OFFSET 0 0 0
											}
										}
									}
								}
							}
						}
					}
				}
			}
		}
	}
}
MOTION
Frames: 8
Frame Time: 0.03333333
-23.053457 79.477287 -7.779831 0.000000 0.000000 0.000000 34.264539 3.448014 -2.554103 -62.512405 -23.207665 26.858390 37.474734 6.945433 -0.847536 -0.033282 7.876016 -30.268922 0.000000 0.000000 0.000000 34.336782 4.082592 -2.954900 -67.811170 2.520758 -24.018808 52.612483 -3.594741 0.505192 -18.770757 -6.179612 20.335734 0.000000 0.000000 0.000000 34.112598 3.884457 -2.405964 -0.040214 -0.025433 -1.258322 11.222811 2.288679 1.909416 9.965477 1.894094 0.779988 0.000000 0.000000 0.000000 9.227112 2.266546 0.870387 0.072622 -1.184366 -0.289998 0.000000 0.000000 0.000000 9.304764 2.408951 0.607257 1.464937 -23.314878 -7.641982 8.760728 -12.740620 -54.109134 1.147468 -65.041856 1.046191 0.000000 0.000000 0.000000 9.177969 2.463403 0.502757 3.010581 24.640114 7.594185 -5.481399 44.158751 22.612256 -0.356790 20.845952 0.320276 0.000000 0.000000 0.000000 
-21.872105 78.530823 -7.892590 0.000000 0.000000 0.000000 37.263152 4.027019 -2.199368 -67.577933 -22.779601 25.496326 39.881789 6.777879 -1.704311 -0.822559 7.158252 -30.976025 0.000000 0.000000 0.000000 37.428474 4.552164 -2.694572 -71.716891 4.029517 -25.525803 54.282915 -2.904708 0.738076 -19.129820 -6.346069 22.002807 0.000000 0.000000 0.000000 37.202995 4.353704 -2.069731 -0.024765 -0.026030 -1.344455 11.155623 2.545096 2.050622 10.349328 2.091114 0.766483 0.000000 0.000000 0.000000 9.504679 2.432015 0.880270 -0.033386 -1.262759 -0.395409 0.000000 0.000000 0.000000 9.600040 2.574140 0.612076 1.517202 -24.150290 -7.193011 8.389637 -12.347202 -54.039118 1.250130 -67.069794 1.014801 0.000000 0.000000 0.000000 9.515892 2.654169 0.524998 3.157608 25.185257 7.337466 -8.028429 43.986200 19.612608 -0.491012 21.047954 0.379841 0.000000 0.000000 0.000000 
-20.721378 77.559174 -7.884079 0.000000 0.000000 0.000000 40.125965 4.851234 -1.827314 -73.002961 -22.063422 24.054253 42.696110 6.461544 -2.731535 -1.371383 6.495996 -30.972722 0.000000 0.000000 0.000000 40.342932 5.234099 -2.368654 -75.397147 5.771640 -27.347546 56.272317 -2.012104 1.146157 -19.684781 -6.560155 23.985568 0.000000 0.000000 0.000000 40.174893 5.038423 -1.680290 -0.022237 -0.108486 -1.418250 11.056565 2.773447 2.166698 10.716184 2.284118 0.744570 0.000000 0.000000 0.000000 9.765273 2.589335 0.883087 -0.158091 -1.350864 -0.487116 0.000000 0.000000 0.000000 9.881207 2.735431 0.603616 1.607052 -24.909210 -6.742930 8.904186 -12.838415 -54.199607 1.433175 -68.853867 1.015263 0.000000 0.000000 0.000000 9.808634 2.834207 0.519261 3.258930 25.626108 7.374709 -11.154316 43.719836 16.922624 -0.645596 21.139318 0.436261 0.000000 0.000000 0.000000 
-19.611404 76.452950 -7.739922 0.000000 0.000000 0.000000 42.690011 5.877257 -1.385279 -78.591886 -21.130903 22.550573 46.103948 5.974076 -3.843474 -2.247848 6.067848 -30.210623 0.000000 0.000000 0.000000 42.949596 6.145271 -1.951320 -78.792967 7.955946 -29.385038 58.865077 -1.004832 1.572494 -20.568852 -6.896257 26.011467 0.000000 0.000000 0.000000 42.856466 5.936517 -1.196697 0.016949 -0.227950 -1.458424 11.046199 2.992076 2.239409 11.124025 2.486245 0.730018 0.000000 0.000000 0.000000 10.082472 2.758295 0.896393 -0.320497 -1.446166 -0.569608 0.000000 0.000000 0.000000 10.204617 2.912159 0.609512 1.723817 -25.489008 -6.266146 9.930000 -13.915839 -54.490132 1.611387 -70.152477 1.036420 0.000000 0.000000 0.000000 10.123782 3.013720 0.504369 3.288952 25.997035 7.697768 -14.142742 43.299660 14.072532 -0.813978 21.640473 0.531662 0.000000 0.000000 0.000000 
-18.551935 75.139351 -7.509190 0.000000 0.000000 0.000000 44.908794 7.045095 -0.843269 -84.036107 -20.140397 20.954646 50.025101 5.167338 -4.870579 -3.917580 5.839078 -28.986677 0.000000 0.000000 0.000000 45.172692 7.251792 -1.423351 -81.798783 10.643109 -31.487954 62.245734 -0.071457 1.864860 -21.983295 -7.508857 27.725597 0.000000 0.000000 0.000000 45.156638 7.019062 -0.602041 0.015970 -0.374211 -1.459168 11.196629 3.213425 2.285289 11.622152 2.716479 0.731171 0.000000 0.000000 0.000000 10.523386 2.965222 0.932294 -0.544639 -1.547997 -0.649058 0.000000 0.000000 0.000000 10.623675 3.134756 0.650368 1.838398 -25.795495 -5.731130 10.986766 -15.227975 -54.739277 1.679244 -70.907288 1.031671 0.000000 0.000000 0.000000 10.534859 3.223507 0.501900 3.275439 26.360471 8.110747 -16.530741 42.715655 10.853860 -0.985071 22.661483 0.679347 0.000000 0.000000 0.000000 
-17.573322 73.591057 -7.147861 0.000000 0.000000 0.000000 46.737369 8.285826 -0.195480 -89.028886 -19.159623 19.325146 54.264890 4.018665 -5.661250 -6.293852 5.733819 -27.594811 0.000000 0.000000 0.000000 47.032222 8.453374 -0.789551 -84.268074 13.772648 -33.464693 66.311233 0.655153 1.943074 -24.007422 -8.431827 28.986674 0.000000 0.000000 0.000000 47.040001 8.198907 0.075751 -0.048924 -0.451767 -1.412554 11.497456 3.456846 2.341787 12.233729 3.006179 0.757588 0.000000 0.000000 0.000000 11.110313 3.231033 0.986847 -0.852110 -1.654208 -0.734089 0.000000 0.000000 0.000000 11.167988 3.428657 0.732646 1.922695 -25.783582 -5.132274 11.720320 -16.577948 -54.790196 1.623698 -71.357459 0.995391 0.000000 0.000000 0.000000 11.094916 3.492017 0.535848 3.281289 26.754237 8.343486 -18.281659 42.104209 7.269347 -1.109197 23.772999 0.814069 0.000000 0.000000 0.000000 
-16.647982 71.840446 -6.689201 0.000000 0.000000 0.000000 48.213257 9.481894 0.532784 -93.492811 -18.243623 17.763374 58.618965 2.662585 -6.215077 -8.865322 5.669788 -26.358535 0.000000 0.000000 0.000000 48.582866 9.674500 -0.118073 -86.152584 17.111415 -35.274727 70.840769 1.129064 1.821887 -26.356011 -9.519467 29.986327 0.000000 0.000000 0.000000 48.548442 9.383652 0.790823 -0.136266 -0.479540 -1.404144 11.881134 3.710749 2.437897 12.958993 3.354246 0.813192 0.000000 0.000000 0.000000 11.838173 3.566034 1.063066 -1.252004 -1.757520 -0.822849 0.000000 0.000000 0.000000 11.860893 3.794275 0.853749 1.964420 -25.466150 -4.487111 11.975186 -17.851493 -54.648552 1.457644 -71.861336 0.916912 0.000000 0.000000 0.000000 11.841334 3.828597 0.612663 3.351039 27.170829 8.139724 -19.707029 41.643045 3.605072 -1.149299 24.439395 0.879044 0.000000 0.000000 0.000000 
-15.844614 69.988464 -6.151291 0.000000 0.000000 0.000000 49.429707 10.629402 1.233360 -97.468924 -17.448458 16.370717 62.844174 1.229838 -6.540452 -11.135727 5.640467 -25.438727 0.000000 0.000000 0.000000 49.903623 10.822469 0.556293 -87.494320 20.370455 -36.861862 75.518437 1.350875 1.606095 -28.705687 -10.637569 30.848109 0.000000 0.000000 0.000000 49.797161 10.512790 1.473901 -0.237358 -0.378993 -1.405120 12.259426 3.972528 2.561509 13.768846 3.753303 0.898651 0.000000 0.000000 0.000000 12.660492 3.950930 1.158946 -1.743426 -1.856968 -0.911514 0.000000 0.000000 0.000000 12.686735 4.211000 0.998957 1.958893 -24.934068 -3.862371 11.812958 -19.217750 -54.438418 1.257313 -72.745060 0.806724 0.000000 0.000000 0.000000 12.750046 4.222750 0.733029 3.489662 27.583009 7.491994 -21.443393 41.393180 0.407117 -1.103101 24.337263 0.814240 0.000000 0.000000 0.000000 
